# xmcd
#
# Track frame offsets: 
#        150
#        22818
#        38928
#        64097
#        91340
#        123890
#        143669
#        172802
#        191276
#        211799
#        234893
#        261812
#        283134
#
# Disc length: 4170 seconds
#
# Revision: 0
# Processed by: cddbd v1.5.2PL0 Copyright (c) Steve Scherf et al.
# Submitted via: ExactAudioCopy v0.99pb4
#
DISCID=a310480d
DTITLE=Lazer Lloyd - Blues in Tel Aviv
DYEAR=2011
DGENRE=Blues
TTITLE0=Hey Hey
TTITLE1=Get Together
TTITLE2=Feel The Power
TTITLE3=Nothing Before Me
TTITLE4=This World
TTITLE5=Land Of Dreams
TTITLE6=War
TTITLE7=Lost On The Highway
TTITLE8=Real People
TTITLE9=Drifting
TTITLE10=Broken Dreams
TTITLE11=Let's Go Back
TTITLE12=Bonus - Blues In Tel Aviv ( Live )
EXTD=
EXTT0=
EXTT1=
EXTT2=
EXTT3=
EXTT4=
EXTT5=
EXTT6=
EXTT7=
EXTT8=
EXTT9=
EXTT10=
EXTT11=
EXTT12=
PLAYORDER=
